<svg id="icon_cart" xmlns="http://www.w3.org/2000/svg" width="24" height="24" viewBox="0 0 24 24">
  <rect id="Container" width="24" height="24" fill="none"/>
  <g id="Group_1382" data-name="Group 1382" transform="translate(-522.147 -521.602)">
    <path id="Path_7391" data-name="Path 7391" d="M534.239,555.1a2,2,0,1,1,2-2A2,2,0,0,1,534.239,555.1Zm0-2h0Z" transform="translate(-3.508 -9.522)" fill="#e2e2e2"/>
    <path id="Path_7392" data-name="Path 7392" d="M550.739,555.1a2,2,0,1,1,2-2A2,2,0,0,1,550.739,555.1Zm0-2h0Zm0,0h0Zm0,0h0Zm0,0Zm0,0h0Zm0,0h0Zm0,0h0Z" transform="translate(-9.021 -9.522)" fill="#e2e2e2"/>
    <path id="Path_7393" data-name="Path 7393" d="M531.351,539.583a2.988,2.988,0,0,1-2.919-2.413l-1.669-8.335c-.007-.028-.013-.057-.017-.086l-.83-4.149h-2.793a9.01,9.01,0,0,1-.976-2h4.588a1,1,0,0,1,.979.8l.839,4.191h16.161a1,1,0,0,1,.981,1.186l-1.6,8.38a3,3,0,0,1-2.939,2.421h-9.807Zm-2.4-9.989,1.438,7.186a1.03,1.03,0,0,0,1,.805h9.749a1,1,0,0,0,1-.8l1.371-7.187Z" fill="#e2e2e2"/>
  </g>
</svg>
