<svg id="icon_eye_hide" xmlns="http://www.w3.org/2000/svg" width="24" height="24" viewBox="0 0 24 24">
  <rect id="Rectangle_2021" data-name="Rectangle 2021" width="24" height="24" fill="none"/>
  <path id="Icon_awesome-eye-slash" data-name="Icon awesome-eye-slash" d="M12,15a5.38,5.38,0,0,1-5.359-4.992L2.708,6.968A12.5,12.5,0,0,0,1.331,9.053a1.213,1.213,0,0,0,0,1.095A12.028,12.028,0,0,0,12,16.8a11.648,11.648,0,0,0,2.921-.392L12.975,14.9A5.4,5.4,0,0,1,12,15Zm11.768,2.179-4.146-3.2a12.422,12.422,0,0,0,3.047-3.828,1.213,1.213,0,0,0,0-1.095A12.028,12.028,0,0,0,12,2.4,11.556,11.556,0,0,0,6.476,3.814L1.7.126A.6.6,0,0,0,.863.232l-.736.948a.6.6,0,0,0,.105.842L22.3,19.073a.6.6,0,0,0,.842-.105l.736-.948a.6.6,0,0,0-.106-.842Zm-6.889-5.325L15.4,10.714a3.553,3.553,0,0,0-4.354-4.572A1.787,1.787,0,0,1,11.4,7.2a1.749,1.749,0,0,1-.058.375L8.582,5.441A5.337,5.337,0,0,1,12,4.2a5.4,5.4,0,0,1,5.4,5.4,5.272,5.272,0,0,1-.521,2.254Z" transform="translate(0 2)" fill="#e2e2e2"/>
</svg>
